# xmcd
#
# Track frame offsets:
#	150
#	15530
#	42297
#	58005
#	80467
#	93570
#	106985
#	120695
#	139195
#	155282
#
# Disc length: 2337 seconds
#
# Revision: 3
# Processed by: cddbd v1.4PL0 Copyright (c) Steve Scherf et al.
# Submitted via: MusicManager 7.0.1.0 
#
DISCID=7b091f0a
DTITLE=Bromberg Band, David  - Midnight On The Water
DYEAR=1975
DGENRE=Rock
TTITLE0=(What A) Wonderful World
TTITLE1=Yankee's Revenge (Medley)
TTITLE2=I Like To Sleep Late In The Morning
TTITLE3=Nobody's
TTITLE4=Don't Put That Thing On Me
TTITLE5=Mr. Blue
TTITLE6=Dark Hollow
TTITLE7=If I Get Lucky
TTITLE8=The Joke's On Me
TTITLE9=Midnight On The Water
EXTD=YEAR: 1975
EXTT0=
EXTT1=
EXTT2=
EXTT3=
EXTT4=
EXTT5=
EXTT6=
EXTT7=
EXTT8=
EXTT9=
PLAYORDER=
